<svg width="404" height="420" viewBox="0 0 404 420" fill="white" xmlns="http://www.w3.org/2000/svg">
<path fill-rule="evenodd" clip-rule="evenodd" d="M0 19.6875V39.375H4.92683H9.85366V210V380.625H4.92683H0V400.312V420H202H404V400.312V380.625H399.894H395.789V210V39.375H399.894H404V19.6875V0H202H0V19.6875ZM82.9235 147.451L82.9111 255.527L74.2416 264.079C61.3596 276.787 58.3008 281.981 58.3008 291.153C58.3008 302.259 67.9402 311.719 79.2563 311.719H82.935V346.172V380.625H56.248H29.561V210V39.375H56.248H82.935L82.9235 147.451ZM156.016 62.8409V86.3067L153.671 89.2959C147.944 96.5967 143.78 105.319 142.052 113.637C140.86 119.376 140.858 132.058 142.05 137.37C147.107 159.913 165.01 177.466 187.585 182.016L194.93 183.497L190.74 184.052C188.435 184.357 184.425 185.336 181.829 186.229C176.067 188.21 175.725 188.22 175.717 186.416C175.712 185.489 173.806 183.971 170.333 182.127C167.376 180.558 162.944 177.483 160.486 175.294L156.016 171.314V181.547V191.778L150.511 193.98C147.482 195.192 143.88 196.958 142.504 197.906C137.128 201.612 126.328 211.092 114.754 222.264L102.642 233.956V136.666V39.375H129.329H156.016V62.8409ZM229.098 57.8435V76.3129L224.236 73.8609C210.975 67.1738 191.544 65.9482 179.368 71.0317C177.844 71.6674 176.401 72.1875 176.16 72.1875C175.92 72.1875 175.724 64.8047 175.724 55.7812V39.375H202.411H229.098V57.8435ZM302.621 40.4004C302.837 40.9648 302.917 85.2756 302.8 138.869L302.589 236.313L292.622 227.426C287.141 222.538 279.381 215.192 275.379 211.102C268.323 203.892 262.022 199.525 253.116 195.674L249.626 194.165V177.473C249.626 167.185 249.319 160.781 248.826 160.781C248.386 160.781 247.457 161.881 246.761 163.226C245.053 166.525 236.503 175.565 232.412 178.397C229.223 180.605 229.098 180.862 229.098 185.188C229.098 190.393 229.448 190.339 219.679 186.636C216.531 185.442 211.912 184.195 209.415 183.863L204.874 183.26L211.268 181.802C232.254 177.014 249.283 160.45 254.61 139.639C257.619 127.886 256.179 111.334 251.319 101.818C249.702 98.6516 249.626 97.1783 249.626 68.9391V39.375H275.928C296.214 39.375 302.32 39.6096 302.621 40.4004ZM376.081 210V380.625H349.394H322.707V344.208V307.791L325.224 305.099C328.94 301.126 330.266 298.037 330.728 292.275C331.211 286.265 329.857 281.946 325.507 275.63L322.707 271.563V155.469V39.375H349.394H376.081V210ZM152.488 233.647C165.738 237.774 173.314 248.662 172.24 262.03C171.699 268.767 169.33 273.85 164.213 279.255C157.83 285.997 154.373 287.322 142.225 287.681C134.635 287.906 131.018 288.396 127.65 289.655C125.187 290.575 123.172 291.579 123.172 291.885C123.172 292.191 124.094 301.485 125.219 312.539C130.423 363.644 132.152 384.902 130.839 381.65C130.53 380.887 126.877 380.625 116.533 380.625H102.642V338.87V297.116L107.364 293.042C118.255 283.644 126.173 280.551 139.362 280.539C146.919 280.532 148.821 280.249 152.355 278.605C161.985 274.125 167.21 262.103 164.072 251.642C162.678 246.992 156.92 240.947 151.729 238.685C143.5 235.097 124.557 235.527 112.801 239.568C108.577 241.019 108.541 241.017 108.096 239.318C107.85 238.376 107.811 237.343 108.011 237.02C108.535 236.172 120.78 232.979 126.72 232.14C134.198 231.085 146.59 231.81 152.488 233.647ZM273.947 233.769C277.614 234.717 283.157 236.561 286.264 237.868C291.622 240.121 291.928 240.395 292.169 243.169C292.31 244.777 292.207 246.094 291.941 246.094C291.675 246.094 289.268 244.99 286.592 243.64C283.916 242.291 278.477 240.193 274.504 238.978C268.039 237.001 265.944 236.764 254.553 236.715C242.522 236.663 241.577 236.777 237.304 238.779C226.519 243.834 221.795 253.979 225.099 264.992C226.632 270.104 231.468 275.78 236.43 278.291C240.428 280.314 241.754 280.547 249.276 280.547C265.505 280.547 277.891 287.024 290.683 302.201C293.224 305.216 296.909 308.493 299.109 309.695L303.018 311.831L302.804 346.023L302.589 380.215H292.325H282.061L282.307 369.551C282.442 363.686 283.114 346.743 283.799 331.901L285.045 304.914L281.09 300.832C276.008 295.587 268.483 290.666 263.199 289.131C260.891 288.462 254.843 287.833 249.611 287.72C241.176 287.537 239.689 287.273 235.491 285.215C224.316 279.739 217.631 266.47 220.076 254.622C221.331 248.537 222.627 246.02 226.876 241.415C230.864 237.093 236.441 234.079 243.387 232.491C250.308 230.908 265.3 231.536 273.947 233.769Z" fill="white"/>
</svg>
