<svg width="391" height="447" viewBox="0 0 391 447" fill="none" xmlns="http://www.w3.org/2000/svg">
<path d="M380.527 419.062H363.071V20.9531C363.071 9.38089 353.694 0 342.125 0H48.875C37.3065 0 27.9286 9.38089 27.9286 20.9531V419.062H10.4732C4.68938 419.062 0 423.753 0 429.539V447H391V429.539C391 423.753 386.311 419.062 380.527 419.062ZM111.714 66.3516C111.714 60.5659 116.404 55.875 122.188 55.875H157.098C162.882 55.875 167.571 60.5659 167.571 66.3516V101.273C167.571 107.059 162.882 111.75 157.098 111.75H122.188C116.404 111.75 111.714 107.059 111.714 101.273V66.3516ZM111.714 150.164C111.714 144.378 116.404 139.688 122.188 139.688H157.098C162.882 139.688 167.571 144.378 167.571 150.164V185.086C167.571 190.872 162.882 195.562 157.098 195.562H122.188C116.404 195.562 111.714 190.872 111.714 185.086V150.164ZM157.098 279.375H122.188C116.404 279.375 111.714 274.684 111.714 268.898V233.977C111.714 228.191 116.404 223.5 122.188 223.5H157.098C162.882 223.5 167.571 228.191 167.571 233.977V268.898C167.571 274.684 162.882 279.375 157.098 279.375ZM223.429 419.062H167.571V345.727C167.571 339.941 172.261 335.25 178.045 335.25H212.955C218.739 335.25 223.429 339.941 223.429 345.727V419.062ZM279.286 268.898C279.286 274.684 274.596 279.375 268.813 279.375H233.902C228.118 279.375 223.429 274.684 223.429 268.898V233.977C223.429 228.191 228.118 223.5 233.902 223.5H268.813C274.596 223.5 279.286 228.191 279.286 233.977V268.898ZM279.286 185.086C279.286 190.872 274.596 195.562 268.813 195.562H233.902C228.118 195.562 223.429 190.872 223.429 185.086V150.164C223.429 144.378 228.118 139.688 233.902 139.688H268.813C274.596 139.688 279.286 144.378 279.286 150.164V185.086ZM279.286 101.273C279.286 107.059 274.596 111.75 268.813 111.75H233.902C228.118 111.75 223.429 107.059 223.429 101.273V66.3516C223.429 60.5659 228.118 55.875 233.902 55.875H268.813C274.596 55.875 279.286 60.5659 279.286 66.3516V101.273Z" fill="white"/>
</svg>
