<svg width="384" height="410" viewBox="0 0 384 410" fill="none" xmlns="http://www.w3.org/2000/svg">
<path fill-rule="evenodd" clip-rule="evenodd" d="M7.00002 20C7 37.5 7.00001 34.2584 7 54.5849L7.00001 76.7717V214.567V352.362V407.675C17.2502 407.675 23.7503 407.675 46.2503 407.675C52.7503 407.675 62.3979 407.664 63.8041 407.675C65.705 407.692 66.5361 386.502 67.0591 324.694L67.76 241.692L73.849 229.292C77.258 222.348 84.2584 213.089 89.7551 208.252C107.139 192.947 109.862 192.582 201.532 193.309C281.262 193.941 282.742 194.034 291.901 198.923C305.44 206.151 317.568 219.699 322.639 233.257C326.814 244.411 327.075 249.851 327.075 325.553V405.998H337.017C345.625 405.998 367.607 405.998 383 405.998C383 392.367 383.017 358.367 383.017 209.992L382.41 76.7717V64.0849C382.41 45.5849 382.41 33.0849 382.41 19.985L325.99 20.3517L199.045 19.985C129.175 19.7853 -5.76954 20 7.00002 20ZM212.762 84.5229C222.913 87.3417 236.974 99.6847 242.601 110.715C248.046 121.383 248.087 140.967 242.692 152.843C235.325 169.064 215.231 182.017 197.439 182.017C187.143 182.017 172.588 175.949 164.685 168.361C153.61 157.73 149.135 147.297 149.135 132.107C149.135 97.8684 179.376 75.2526 212.762 84.5229ZM193.62 226.489C192.427 226.884 188.783 227.795 185.522 228.513C178.269 230.11 165.219 241.262 160.959 249.501C156.784 257.576 156.925 271.959 161.224 276.258C168.539 283.57 177.723 278.234 180.524 265.045C185.259 242.766 214.827 246.192 214.827 269.023C214.827 278.525 214.593 278.842 200.004 289.163C187.145 298.259 181.11 329.002 190.365 338.257C199.837 347.729 209.895 339.895 209.895 323.045C209.895 314.554 210.913 311.347 214.545 308.397C236.195 290.816 239.179 285.122 237.671 264.279C236.935 254.117 235.406 249.862 230.143 243.352C226.511 238.858 220.715 233.582 217.26 231.629C210.93 228.047 197.637 225.156 193.62 226.489ZM107.182 261.584C106.386 262.378 105.735 296.068 105.735 336.449V409.867H117.67H129.605V335.002V260.137H119.117C113.347 260.137 107.977 260.788 107.182 261.584ZM266.315 335.002V409.867H277.165H288.015V335.002V260.137H277.165H266.315V335.002ZM188.195 351.277C182.981 356.491 182.688 361.662 187.234 368.153C192.047 375.027 204.249 374.817 208.86 367.782C217.909 353.967 199.893 339.578 188.195 351.277Z" fill="white"/>
</svg>
